<?xml version="1.0" encoding="UTF-8"?>
<svg xmlns="http://www.w3.org/2000/svg" xmlns:xlink="http://www.w3.org/1999/xlink" id="Layer_1" data-name="Layer 1" viewBox="0 0 463.04 72.17">
  <defs>
    <style>.cls-1{fill:#989798;}.cls-2{fill:#333;}.cls-3{fill:url(#New_Gradient_Swatch_2);}</style>
    <linearGradient id="New_Gradient_Swatch_2" x1="114.22" y1="39.2" x2="51.69" y2="75.3" gradientUnits="userSpaceOnUse">
      <stop offset="0" stop-color="#eb2127"></stop>
      <stop offset="0.09" stop-color="#e82127"></stop>
      <stop offset="0.16" stop-color="#de2025"></stop>
      <stop offset="0.23" stop-color="#cc1e23"></stop>
      <stop offset="0.3" stop-color="#b41c21"></stop>
      <stop offset="0.36" stop-color="#951a1d"></stop>
      <stop offset="0.42" stop-color="#6f1618"></stop>
      <stop offset="0.48" stop-color="#431213"></stop>
      <stop offset="0.5" stop-color="#321111"></stop>
      <stop offset="0.55" stop-color="#2b1818"></stop>
      <stop offset="0.58" stop-color="#231f20"></stop>
    </linearGradient>
  </defs>
  <path class="cls-1" d="M128.7,78.19V72.67h2.07v5.52c0,1.6.82,2.42,1.93,2.42s1.93-.82,1.93-2.42V72.67h2.07v5.52c0,2.7-1.57,4.28-4,4.28S128.7,80.89,128.7,78.19Z" transform="translate(-46.86 -21.17)"></path>
  <path class="cls-1" d="M141.33,82.33V72.67H144l3.65,6.69h.07V72.67h2.07v9.66h-2.69l-3.66-6.69h-.06v6.69Z" transform="translate(-46.86 -21.17)"></path>
  <path class="cls-1" d="M160.78,82.33l-.62-1.79h-4l-.62,1.79h-2.09l3.45-9.66h2.55l3.45,9.66Zm-4-3.59h2.72L158.2,75h-.07Z" transform="translate(-46.86 -21.17)"></path>
  <path class="cls-1" d="M174.16,80.47h4.62v1.86h-6.69V72.67h6.55v1.87h-4.48V76.6h4.21v1.73h-4.21Z" transform="translate(-46.86 -21.17)"></path>
  <path class="cls-1" d="M183.13,82.33V72.67h3l2.29,6.73h.08l2.29-6.73h3v9.66h-2.07V75.5h-.07l-2.34,6.83h-1.73l-2.34-6.83h-.07v6.83Z" transform="translate(-46.86 -21.17)"></path>
  <path class="cls-1" d="M198.51,82.33V72.67h4a3.31,3.31,0,1,1,0,6.62h-1.93v3Zm2.07-4.9h1.72a1.45,1.45,0,1,0,0-2.89h-1.72Z" transform="translate(-46.86 -21.17)"></path>
  <path class="cls-1" d="M217.89,82.33h-2.34L213.3,79h-1.06v3.38h-2.07V72.67h4.14a3,3,0,0,1,3.24,3.18,3.06,3.06,0,0,1-2,3Zm-5.65-7.79v2.62h1.93a1.31,1.31,0,1,0,0-2.62Z" transform="translate(-46.86 -21.17)"></path>
  <path class="cls-1" d="M224,80.47h4.62v1.86H222V72.67h6.56v1.87H224V76.6h4.21v1.73H224Z" transform="translate(-46.86 -21.17)"></path>
  <path class="cls-1" d="M232.17,79.43h2.07a1.68,1.68,0,0,0,1.86,1.24c1.31,0,1.8-.48,1.8-1.17,0-1.93-5.38-.27-5.38-4.14,0-1.86,1.58-2.82,3.58-2.82,2.35,0,3.52,1.22,3.73,2.82h-2.07a1.44,1.44,0,0,0-1.59-1c-1,0-1.52.48-1.52,1,0,2,5.38.49,5.38,4.14,0,1.66-1.37,3-3.93,3C234,82.47,232.38,81.43,232.17,79.43Z" transform="translate(-46.86 -21.17)"></path>
  <path class="cls-1" d="M250.24,82.33l-.62-1.79h-4L245,82.33h-2.1l3.45-9.66h2.55l3.45,9.66Zm-4-3.59H249L247.66,75h-.06Z" transform="translate(-46.86 -21.17)"></path>
  <path class="cls-1" d="M261.56,82.33V72.67h3.72c2.69,0,4.42,1.8,4.42,4.83s-1.73,4.83-4.42,4.83Zm2.07-1.86h1.58c1.31,0,2.42-1,2.42-3s-1.11-3-2.42-3h-1.58Z" transform="translate(-46.86 -21.17)"></path>
  <path class="cls-1" d="M276,80.47h4.62v1.86H274V72.67h6.56v1.87H276V76.6h4.21v1.73H276Z" transform="translate(-46.86 -21.17)"></path>
  <path class="cls-1" d="M290.32,77.5c0-3.17,1.79-5,4.55-5a4,4,0,0,1,4.21,3.17h-2.14a2,2,0,0,0-2.07-1.31c-1.45,0-2.48,1-2.48,3.1s1,3.11,2.55,3.11a2.12,2.12,0,0,0,2.25-1.8h-2.52V77.16h4.55v.76c0,2.75-1.59,4.55-4.35,4.55S290.32,80.67,290.32,77.5Z" transform="translate(-46.86 -21.17)"></path>
  <path class="cls-1" d="M311.22,82.33h-2.34L306.63,79h-1.06v3.38H303.5V72.67h4.13a3,3,0,0,1,3.25,3.18,3.06,3.06,0,0,1-2,3Zm-5.65-7.79v2.62h1.93a1.31,1.31,0,1,0,0-2.62Z" transform="translate(-46.86 -21.17)"></path>
  <path class="cls-1" d="M315,78.19V72.67h2.07v5.52c0,1.6.81,2.42,1.93,2.42s1.93-.82,1.93-2.42V72.67H323v5.52c0,2.7-1.58,4.28-4,4.28S315,80.89,315,78.19Z" transform="translate(-46.86 -21.17)"></path>
  <path class="cls-1" d="M327.64,82.33V72.67h4a3.31,3.31,0,1,1,0,6.62h-1.93v3Zm2.07-4.9h1.72a1.45,1.45,0,1,0,0-2.89h-1.72Z" transform="translate(-46.86 -21.17)"></path>
  <path class="cls-1" d="M338.68,77.5c0-3.17,1.79-5,4.55-5s4.55,1.79,4.55,5-1.79,5-4.55,5S338.68,80.67,338.68,77.5Zm7,0c0-2.07-1-3.1-2.48-3.1s-2.49,1-2.49,3.1,1,3.11,2.49,3.11S345.71,79.57,345.71,77.5Z" transform="translate(-46.86 -21.17)"></path>
  <path class="cls-1" d="M357.78,82.33V72.67h4.55c1.94,0,3,1,3,2.69a2.29,2.29,0,0,1-1.24,2.07,2.36,2.36,0,0,1,1.38,2.21c0,1.65-1,2.69-3,2.69Zm2.07-5.66h2.21a1.1,1.1,0,1,0,0-2.2h-2.21Zm0,3.87h2.35a1.11,1.11,0,1,0,0-2.21h-2.35Z" transform="translate(-46.86 -21.17)"></path>
  <path class="cls-1" d="M369.3,77.5c0-3.17,1.8-5,4.55-5s4.56,1.79,4.56,5-1.8,5-4.56,5S369.3,80.67,369.3,77.5Zm7,0c0-2.07-1-3.1-2.49-3.1s-2.48,1-2.48,3.1,1,3.11,2.48,3.11S376.34,79.57,376.34,77.5Z" transform="translate(-46.86 -21.17)"></path>
  <path class="cls-1" d="M382.68,82.33V72.67h2.69L389,79.36h.07V72.67h2.07v9.66h-2.69l-3.66-6.69h-.07v6.69Z" transform="translate(-46.86 -21.17)"></path>
  <path class="cls-1" d="M402.14,82.33l-.62-1.79h-4l-.62,1.79h-2.1l3.45-9.66h2.56l3.44,9.66Zm-4-3.59h2.72L399.56,75h-.07Z" transform="translate(-46.86 -21.17)"></path>
  <path class="cls-1" d="M407.93,82.33V72.67h2.69l3.66,6.69h.07V72.67h2.06v9.66h-2.69l-3.65-6.69H410v6.69Z" transform="translate(-46.86 -21.17)"></path>
  <path class="cls-1" d="M420.62,82.33V80.81l4.69-6.34h-4.55v-1.8h7.17v1.52l-4.69,6.35H428v1.79Z" transform="translate(-46.86 -21.17)"></path>
  <path class="cls-1" d="M438.49,82.33l-.62-1.79h-4l-.62,1.79h-2.09l3.45-9.66h2.55l3.45,9.66Zm-4-3.59h2.71L435.91,75h-.07Z" transform="translate(-46.86 -21.17)"></path>
  <path class="cls-2" d="M147.57,60.69c0,3.33-2.41,6.06-6.55,6.06H128.7V45.53h11.76c3.79,0,6.26,2.61,6.26,5.79a5.35,5.35,0,0,1-2.41,4.28A5.8,5.8,0,0,1,147.57,60.69Zm-14-6.91h5.85c1.59,0,2.35-.91,2.35-2a2.06,2.06,0,0,0-2.35-2.06h-5.85Zm9.11,6.48A2.33,2.33,0,0,0,140,57.93h-6.5V62.6H140A2.34,2.34,0,0,0,142.63,60.26Z" transform="translate(-46.86 -21.17)"></path>
  <path class="cls-2" d="M172,56.08a11,11,0,1,1-11-11.21A11,11,0,0,1,172,56.08Zm-4.79,0a6.21,6.21,0,1,0-6.2,6.61A6.41,6.41,0,0,0,167.2,56.08Z" transform="translate(-46.86 -21.17)"></path>
  <path class="cls-2" d="M194.71,45.56V66.75H191L180.37,54V66.75h-4.82V45.56h3.68l10.69,12.76V45.56Z" transform="translate(-46.86 -21.17)"></path>
  <path class="cls-2" d="M219.78,66.75H215l-1.7-4.4H204l-1.7,4.4h-4.82l8.23-21.19h5.87Zm-8.17-8.7-3-7.67-3,7.67Z" transform="translate(-46.86 -21.17)"></path>
  <path class="cls-2" d="M241.77,45.56V66.75h-3.68L227.43,54V66.75h-4.82V45.56h3.67L237,58.32V45.56Z" transform="translate(-46.86 -21.17)"></path>
  <path class="cls-2" d="M253.17,62.23h10.88v4.52H246.38v-3.4l11-13.3h-11V45.56h17.67v3.49Z" transform="translate(-46.86 -21.17)"></path>
  <path class="cls-2" d="M288.56,66.75h-4.79l-1.71-4.4h-9.28l-1.71,4.4h-4.82l8.23-21.19h5.88Zm-8.17-8.7-3-7.67-3,7.67Z" transform="translate(-46.86 -21.17)"></path>
  <path class="cls-2" d="M320.15,56.17c0,5.85-4,10.58-10.93,10.58h-8.7V45.56h8.7C316.19,45.56,320.15,50.32,320.15,56.17Zm-4.88,0c0-3.3-2-6-6.23-6h-3.7v12H309C313.31,62.14,315.27,59.47,315.27,56.17Z" transform="translate(-46.86 -21.17)"></path>
  <path class="cls-2" d="M344.66,56.08a11,11,0,1,1-11-11.21A11,11,0,0,1,344.66,56.08Zm-4.79,0a6.21,6.21,0,1,0-6.2,6.61A6.41,6.41,0,0,0,339.87,56.08Z" transform="translate(-46.86 -21.17)"></path>
  <path class="cls-2" d="M371.47,66.75h-4.82V54.17l-5.23,8.06h-3.15L353,54.17V66.75h-4.82V45.56h4.38l7.26,11.16,7.23-11.16h4.38Z" transform="translate(-46.86 -21.17)"></path>
  <path class="cls-2" d="M376.82,66.75V45.56h4.82V66.75Z" transform="translate(-46.86 -21.17)"></path>
  <path class="cls-2" d="M406.15,45.56V66.75h-3.67L391.81,54V66.75H387V45.56h3.67l10.7,12.76V45.56Z" transform="translate(-46.86 -21.17)"></path>
  <path class="cls-2" d="M411.5,66.75V45.56h4.82V66.75Z" transform="translate(-46.86 -21.17)"></path>
  <path class="cls-2" d="M435.92,61l3,3.12a10.75,10.75,0,0,1-7.76,3.21,11.23,11.23,0,0,1,0-22.45,10.75,10.75,0,0,1,7.76,3.21l-3,3.12a6.28,6.28,0,0,0-4.43-1.73,6.61,6.61,0,0,0,0,13.22A6.25,6.25,0,0,0,435.92,61Z" transform="translate(-46.86 -21.17)"></path>
  <path class="cls-2" d="M462.84,66.75h-4.79l-1.7-4.4h-9.29l-1.7,4.4h-4.82l8.23-21.19h5.88Zm-8.17-8.7-3-7.67-3,7.67Z" transform="translate(-46.86 -21.17)"></path>
  <path class="cls-2" d="M484.83,45.56V66.75h-3.68L470.49,54V66.75h-4.82V45.56h3.67L480,58.32V45.56Z" transform="translate(-46.86 -21.17)"></path>
  <path class="cls-2" d="M509.9,66.75h-4.79l-1.71-4.4h-9.28l-1.71,4.4h-4.82l8.23-21.19h5.88Zm-8.17-8.7-3-7.67-3,7.67Z" transform="translate(-46.86 -21.17)"></path>
  <path class="cls-3" d="M105.93,44.53a25.16,25.16,0,0,0-1.26-2.27A23.7,23.7,0,0,0,97.86,35l0,0A21.47,21.47,0,0,0,87,31.51l-.57,0-.45,0H84.3a.75.75,0,0,0-.15,0h0V82.54l.48,0h.52A20.5,20.5,0,0,0,97,79.27a23.54,23.54,0,0,0,4.74-4.15A26.27,26.27,0,0,0,104,72.21l0,0A28,28,0,0,0,105.93,44.53ZM88.13,78V36.08s16.62,1.83,16.57,21.35C104.7,57.43,104.7,74.28,88.13,78ZM54.75,34.72,53.08,37l5.25,3.46,1.22-1.55ZM51.82,39l-1.33,2.46,5.66,2.66,1-1.7ZM49.53,43.6l-1,2.62,6,1.83.73-1.83Zm-1.61,4.91-.57,2.72,6.11,1,.47-1.91ZM47,53.58l-.18,2.77,6.15.08.19-2Zm6,5.15H46.88l.22,2.76,6.06-.8ZM53.55,63l-6.1.88.61,2.7,5.86-1.65Zm1.08,4.12-5.89,1.73,1,2.59,5.54-2.46ZM56.28,71l-5.55,2.54L52.07,76l5.11-3.2Zm2.19,3.65-5.1,3.28L55,80.14l4.57-3.87ZM71.64,85.15l-2.5,5.47,2.58.95,1.74-5.69Zm30.05-4.36-1.61,1.14,3.29,5.1,2.21-1.65Zm3.12-2.91-1.42,1.36,4,4.6,2-2Zm6.25-43.28-4.85,4.11,1.14,1.61,5.39-3.47ZM66.72,25c-.85.42-1.66.88-2.46,1.36l3.38,5.4,1.75-.9Zm-4.45,2.66c-.77.54-1.51,1.11-2.24,1.7l4.1,4.83,1.61-1.13Zm-4,3.26c-.69.64-1.35,1.31-2,2L61,37.1l1.43-1.36ZM61.17,78l-4.57,4c.62.67,1.28,1.32,2,1.94l4-4.48Zm6.65,5.29-3.26,5.06c.79.47,1.6.92,2.42,1.32l2.54-5.39Zm7.87,3.21L74,92.23c.88.23,1.78.42,2.69.58l.91-5.87Zm4.2.73L79,93.14c.91.11,1.82.17,2.75.2l.06-6Zm6.22,0-2,.09v6c.92,0,1.84-.1,2.74-.2Zm4.2-.76-1.93.37.86,6c.91-.16,1.81-.35,2.69-.58Zm4.06-1.35-1.87.65,1.7,5.78c.88-.28,1.75-.6,2.59-1Zm3.81-1.91-1.75.9L99,89.63c.82-.41,1.63-.85,2.42-1.32Zm9.31-8.67-1.22,1.55,4.63,4c.58-.71,1.14-1.44,1.67-2.2Zm2.18-3.67-1,1.7,5.18,3.33c.48-.79.93-1.6,1.35-2.42Zm2.69-8.08-.47,1.91,6,1.75c.23-.89.43-1.8.6-2.71Zm.45-4.25-.18,2,6.18.89c.11-.91.18-1.84.21-2.77Zm6-5.08-6.2.82.09,2H119C119,55.32,119,54.39,118.86,53.47ZM118,48.39l-6,1.7.37,1.93,6.26-.9C118.38,50.2,118.18,49.28,118,48.39ZM114,38.85l-5.37,3.37.9,1.75,5.81-2.65C114.94,40.48,114.5,39.65,114,38.85ZM111.3,66.94l-.73,1.82,5.64,2.57,1-2.59Zm5-23.46L110.55,46l.65,1.86,6.1-1.8Zm-52,37.37-3.94,4.56,2.21,1.64,3.28-5ZM71.5,23l1.82,6.19-1.86.65L68.87,24Zm10.18-1.83v6.47l-2,.09-.84-6.36Zm-5.16.55.92,6.4-1.93.37-1.74-6.16Zm7.53-.56L84,27.58l2,.2.92-6.42Zm5.16.52-1,6.35,1.91.47L92,22.29Zm5,1.26L92.36,29.1l1.82.73,2.7-5.89Zm4.79,2L96.3,30.73l1.71,1,3.49-5.45Zm4.47,2.64L100,32.91l1.54,1.22,4.22-4.87Zm4,3.25-4.23,4.78L104.65,37l4.86-4.21ZM81.07,53.17a4,4,0,0,0,.69-2.42V31.45S59.91,29.8,57.25,54.54a22,22,0,0,0,0,4.18c.49,6.55,4.44,23.9,24.36,23.9v-20a2.72,2.72,0,0,0-.46-1.71c-.52-.52-3-3.58-3-3.58a.55.55,0,0,1,0-.74C78.5,56.22,81.07,53.17,81.07,53.17ZM77.64,77.94S63.3,76.28,61.29,59H73.06a1.65,1.65,0,0,1,1.39.48l2.72,3.15.22.3s.25.17.25,1.07Zm.09-27.23a1.47,1.47,0,0,1-.25.37l-2.23,2.53-.31.29a1.67,1.67,0,0,1-1.37.34H61.21s1.17-15.76,16.71-18.16V49.52A3.31,3.31,0,0,1,77.73,50.71Z" transform="translate(-46.86 -21.17)"></path>
</svg>
