<svg xmlns="http://www.w3.org/2000/svg" viewBox="0 0 24 24" role="img" aria-label="Biblioteca">
  <path fill="#ffffff" d="M12 6.13C10.78 5.42 9.2 5 7.5 5c-1.27 0-2.49.21-3.62.52A1 1 0 0 0 3 6.49v11.36a1 1 0 0 0 1.29.96C5.33 18.46 6.4 18.3 7.5 18.3c1.61 0 3.11.45 4.18 1.18a.6.6 0 0 0 .64 0c1.07-.73 2.57-1.18 4.18-1.18 1.1 0 2.17.16 3.21.51A1 1 0 0 0 21 17.85V6.49a1 1 0 0 0-.88-.97A13.2 13.2 0 0 0 16.5 5c-1.7 0-3.28.42-4.5 1.13zm-.75 11.04c-1.1-.55-2.4-.87-3.75-.87-.93 0-1.83.1-2.7.31V7.03c.85-.2 1.76-.33 2.7-.33 1.46 0 2.78.36 3.75 1v9.51zm9-.56c-.87-.21-1.77-.31-2.7-.31-1.35 0-2.65.32-3.75.87V7.7c.97-.64 2.29-1 3.75-1 .94 0 1.85.13 2.7.33v9.58z"/>
</svg>
