<?xml version="1.0" encoding="UTF-8"?>
<svg xmlns="http://www.w3.org/2000/svg" width="860" height="860" viewBox="0 0 860 860">
  <defs>
    <radialGradient id="glow" cx="50%" cy="28%" r="75%">
      <stop offset="0%" stop-color="#2a1a5c"/>
      <stop offset="45%" stop-color="#0f3d5c"/>
      <stop offset="100%" stop-color="#033d38"/>
    </radialGradient>
    <radialGradient id="vignette" cx="50%" cy="50%" r="70%">
      <stop offset="0%" stop-color="transparent"/>
      <stop offset="100%" stop-color="#021a18" stop-opacity="0.55"/>
    </radialGradient>
  </defs>
  <rect width="100%" height="100%" fill="url(#glow)"/>
  <line x1="137.6" y1="77.39999999999999" x2="184.9" y2="68.8" stroke="rgba(255,255,255,0.72)" stroke-width="1.2" stroke-linecap="round"/>
  <line x1="184.9" y1="68.8" x2="202.1" y2="124.69999999999999" stroke="rgba(255,255,255,0.72)" stroke-width="1.2" stroke-linecap="round"/>
  <line x1="202.1" y1="124.69999999999999" x2="154.79999999999998" y2="133.3" stroke="rgba(255,255,255,0.72)" stroke-width="1.2" stroke-linecap="round"/>
  <line x1="154.79999999999998" y1="133.3" x2="137.6" y2="77.39999999999999" stroke="rgba(255,255,255,0.72)" stroke-width="1.2" stroke-linecap="round"/>
  <line x1="154.79999999999998" y1="133.3" x2="232.20000000000002" y2="141.9" stroke="rgba(255,255,255,0.72)" stroke-width="1.2" stroke-linecap="round"/>
  <line x1="232.20000000000002" y1="141.9" x2="275.2" y2="159.1" stroke="rgba(255,255,255,0.72)" stroke-width="1.2" stroke-linecap="round"/>
  <line x1="275.2" y1="159.1" x2="326.8" y2="176.29999999999998" stroke="rgba(255,255,255,0.72)" stroke-width="1.2" stroke-linecap="round"/>
  <line x1="567.6" y1="94.6" x2="645" y2="107.5" stroke="rgba(255,255,255,0.72)" stroke-width="1.2" stroke-linecap="round"/>
  <line x1="567.6" y1="94.6" x2="589.1" y2="159.1" stroke="rgba(255,255,255,0.72)" stroke-width="1.2" stroke-linecap="round"/>
  <line x1="645" y1="107.5" x2="649.3" y2="159.1" stroke="rgba(255,255,255,0.72)" stroke-width="1.2" stroke-linecap="round"/>
  <line x1="589.1" y1="159.1" x2="619.1999999999999" y2="159.1" stroke="rgba(255,255,255,0.72)" stroke-width="1.2" stroke-linecap="round"/>
  <line x1="619.1999999999999" y1="159.1" x2="649.3" y2="159.1" stroke="rgba(255,255,255,0.72)" stroke-width="1.2" stroke-linecap="round"/>
  <line x1="619.1999999999999" y1="159.1" x2="619.1999999999999" y2="189.2" stroke="rgba(255,255,255,0.72)" stroke-width="1.2" stroke-linecap="round"/>
  <line x1="619.1999999999999" y1="189.2" x2="619.1999999999999" y2="210.7" stroke="rgba(255,255,255,0.72)" stroke-width="1.2" stroke-linecap="round"/>
  <line x1="589.1" y1="159.1" x2="580.5" y2="215" stroke="rgba(255,255,255,0.72)" stroke-width="1.2" stroke-linecap="round"/>
  <line x1="649.3" y1="159.1" x2="657.9" y2="236.50000000000003" stroke="rgba(255,255,255,0.72)" stroke-width="1.2" stroke-linecap="round"/>
  <line x1="580.5" y1="215" x2="657.9" y2="236.50000000000003" stroke="rgba(255,255,255,0.72)" stroke-width="1.2" stroke-linecap="round"/>
  <circle cx="51.6" cy="189.2" r="4.257000000000001" fill="#ffffff" opacity="0.95"/>
  <circle cx="412.8" cy="68.8" r="4.257000000000001" fill="#ffffff" opacity="0.95"/>
  <circle cx="447.2" cy="189.2" r="4.257000000000001" fill="#ffffff" opacity="0.95"/>
  <circle cx="412.8" cy="275.2" r="4.257000000000001" fill="#ffffff" opacity="0.95"/>
  <circle cx="705.1999999999999" cy="326.8" r="4.257000000000001" fill="#ffffff" opacity="0.95"/>
  <circle cx="189.2" cy="361.2" r="4.257000000000001" fill="#ffffff" opacity="0.95"/>
  <circle cx="791.2" cy="412.8" r="4.257000000000001" fill="#ffffff" opacity="0.95"/>
  <circle cx="301" cy="51.6" r="4.257000000000001" fill="#ffffff" opacity="0.95"/>
  <circle cx="498.79999999999995" cy="275.2" r="4.257000000000001" fill="#ffffff" opacity="0.95"/>
  <circle cx="103.2" cy="301" r="4.257000000000001" fill="#ffffff" opacity="0.95"/>
  <circle cx="137.6" cy="77.39999999999999" r="8.127" fill="#ffffff" opacity="0.95"/>
  <circle cx="184.9" cy="68.8" r="7.353" fill="#ffffff" opacity="0.95"/>
  <circle cx="202.1" cy="124.69999999999999" r="7.353" fill="#ffffff" opacity="0.95"/>
  <circle cx="154.79999999999998" cy="133.3" r="7.353" fill="#ffffff" opacity="0.95"/>
  <circle cx="232.20000000000002" cy="141.9" r="7.353" fill="#ffffff" opacity="0.95"/>
  <circle cx="275.2" cy="159.1" r="7.353" fill="#ffffff" opacity="0.95"/>
  <circle cx="326.8" cy="176.29999999999998" r="8.127" fill="#fffef2" opacity="0.95"/>
  <circle cx="567.6" cy="94.6" r="8.514000000000001" fill="#fffef2" opacity="0.95"/>
  <circle cx="645" cy="107.5" r="6.8112" fill="#ffffff" opacity="0.95"/>
  <circle cx="589.1" cy="159.1" r="6.8112" fill="#ffffff" opacity="0.95"/>
  <circle cx="619.1999999999999" cy="159.1" r="8.514000000000001" fill="#fffef2" opacity="0.95"/>
  <circle cx="649.3" cy="159.1" r="6.8112" fill="#ffffff" opacity="0.95"/>
  <circle cx="619.1999999999999" cy="189.2" r="6.8112" fill="#ffffff" opacity="0.95"/>
  <circle cx="619.1999999999999" cy="210.7" r="6.8112" fill="#ffffff" opacity="0.95"/>
  <circle cx="580.5" cy="215" r="6.8112" fill="#ffffff" opacity="0.95"/>
  <circle cx="657.9" cy="236.50000000000003" r="8.514000000000001" fill="#fffef2" opacity="0.95"/>
  <rect width="100%" height="100%" fill="url(#vignette)"/>
</svg>